# xmcd
#
# Track frame offsets: 
#        150
#        10953
#        22372
#        41261
#        54467
#        69924
#        80742
#        94481
#        108774
#        121470
#        138733
#        151034
#        166547
#        178641
#        190750
#        210512
#        223532
#
# Disc length: 3146 seconds
#
# Revision: 3
# Processed by: cddbd v1.5.2PL0 Copyright (c) Steve Scherf et al.
# Submitted via: ExactAudioCopy v1.3
#
DISCID=e20c4811
DTITLE=The Balfa Brothers - Legends Of Cajun Music
DYEAR=1974
DGENRE=Cajun
TTITLE0=Les Flammes D'enfer
TTITLE1=Grand Praire Waltz
TTITLE2=Indian On A Stump
TTITLE3=Jolie Blonde
TTITLE4=La Porte En Arriere
TTITLE5=La Valse De Grand Bois
TTITLE6=J'etais Au Bal Hier Au Soir
TTITLE7=The Kaplan Waltz
TTITLE8=T'en As Eu, Mais Ten Auras Plus
TTITLE9=Les Barres De La Prison
TTITLE10=Jeunes Gens De La Campagne
TTITLE11=Petits Yeux Noirs
TTITLE12=Choupique Two-Step
TTITLE13=La Valse De Samedi Soir
TTITLE14=La Valse De Balfa
TTITLE15=The Bosco Stomp
TTITLE16=T'en As Eu, Mais Ten Auras Plus (Reprise)
EXTD=
EXTT0=
EXTT1=
EXTT2=
EXTT3=
EXTT4=
EXTT5=
EXTT6=
EXTT7=
EXTT8=
EXTT9=
EXTT10=
EXTT11=
EXTT12=
EXTT13=
EXTT14=
EXTT15=
EXTT16=
PLAYORDER=
